<svg width="160" height="32" viewBox="0 0 160 32" fill="none" xmlns="http://www.w3.org/2000/svg">
<g id="logo" clip-path="url(#clip0_4_2928)">
<g id="Group 20784">
<path id="Vector" d="M2.5957 0H8.08646V32H0V2.56794C0 1.14983 1.16225 0 2.5957 0Z" fill="white"/>
<path id="Vector_2" d="M16.1734 24V29.4321C16.1734 30.8502 15.0111 32 13.5777 32H8.08691L16.1734 24Z" fill="white"/>
<path id="Vector_3" d="M29.7505 32H24.2598V0H32.3462V29.4321C32.3462 30.8502 31.184 32 29.7505 32Z" fill="white"/>
<path id="Vector_4" d="M16.1729 8V2.56794C16.1729 1.14983 17.3351 0 18.7686 0H24.2593L16.1729 8Z" fill="white"/>
</g>
<path id="Vector_5" d="M49.5404 16.9617V19.9233C49.5404 20.6969 48.9064 21.324 48.1245 21.324H45.1309L49.5404 16.9617Z" fill="white"/>
<path id="Vector_6" d="M43.1299 10.6724H45.1304V19.6549V21.3309H43.1299V10.6758V10.6724Z" fill="white"/>
<path id="Vector_7" d="M51.3789 15.9999C51.3789 12.8501 53.8408 10.519 57.1796 10.519C60.5184 10.519 62.9803 12.8326 62.9803 15.9999C62.9803 19.1671 60.5184 21.4807 57.1796 21.4807C53.8408 21.4807 51.3789 19.1532 51.3789 15.9999ZM60.9657 15.9999C60.9657 13.8222 59.3491 12.2542 57.1796 12.2542C55.0101 12.2542 53.3935 13.8222 53.3935 15.9999C53.3935 18.1776 55.0101 19.7455 57.1796 19.7455C59.3491 19.7455 60.9657 18.1776 60.9657 15.9999Z" fill="white"/>
<path id="Vector_8" d="M72.7639 15.8781H74.6552V20.1254C73.5317 21.0244 71.9609 21.4808 70.4394 21.4808C67.1005 21.4808 64.6387 19.1812 64.6387 16C64.6387 12.8188 67.1005 10.5192 70.4711 10.5192C72.2708 10.5192 73.7782 11.1115 74.7961 12.2544L73.5352 13.4739C72.6899 12.6376 71.7179 12.2544 70.5662 12.2544C68.2734 12.2544 66.6568 13.7909 66.6568 16C66.6568 18.2091 68.2734 19.7456 70.5486 19.7456C71.3163 19.7456 72.0736 19.5923 72.7639 19.1986V15.8815V15.8781Z" fill="white"/>
<path id="Vector_9" d="M77.29 10.6725H79.2905V21.3275H77.29V10.6725Z" fill="white"/>
<path id="Vector_10" d="M81.4283 16C81.4283 12.8188 83.8902 10.5192 87.1973 10.5192C88.9513 10.5192 90.4587 11.1429 91.4589 12.2997L90.1664 13.5017C89.381 12.6655 88.4124 12.2544 87.2889 12.2544C85.0595 12.2544 83.4429 13.8084 83.4429 16C83.4429 18.1916 85.0595 19.7456 87.2889 19.7456C88.4124 19.7456 89.381 19.3345 90.1664 18.4808L91.4589 19.7004C90.4587 20.8571 88.9513 21.4808 87.1797 21.4808C83.8867 21.4808 81.4248 19.1812 81.4248 16H81.4283Z" fill="white"/>
<path id="Vector_11" d="M100.982 18.8606H95.597L94.5369 21.3275H92.4766L97.3228 10.6725H99.2916L104.155 21.3275H102.063L100.986 18.8606H100.982ZM100.32 17.3066L98.2878 12.6481L96.2733 17.3066H100.32Z" fill="white"/>
<path id="Vector_12" d="M105.832 10.6725H107.833V19.6551H113.464V21.331H105.832V10.676V10.6725Z" fill="white"/>
<path id="Vector_13" d="M121.547 10.6725H127.119V12.3484H123.547V21.331H121.547V10.676V10.6725Z" fill="white"/>
<path id="Vector_14" d="M137.012 19.669V21.3275H128.933V10.6725H136.797V12.331H130.933V15.1011H136.135V16.7282H130.933V19.6655H137.012V19.669Z" fill="white"/>
<path id="Vector_15" d="M138.473 15.9999C138.473 12.8187 140.935 10.519 144.242 10.519C145.996 10.519 147.504 11.1427 148.504 12.2995L147.211 13.5016C146.426 12.6654 145.457 12.2542 144.334 12.2542C142.104 12.2542 140.488 13.8082 140.488 15.9999C140.488 18.1915 142.104 19.7455 144.334 19.7455C145.457 19.7455 146.426 19.3344 147.211 18.4807L148.504 19.7002C147.504 20.857 145.996 21.4807 144.225 21.4807C140.932 21.4807 138.47 19.1811 138.47 15.9999H138.473Z" fill="white"/>
<path id="Vector_16" d="M160 10.6724V21.3274H158V16.7595H152.428V21.3274H150.428V10.6724H152.428V15.0731H158V10.6724H160Z" fill="white"/>
<path id="Vector_17" d="M117.138 15.0349V12.0732C117.138 11.2997 117.772 10.6725 118.554 10.6725H121.547L117.138 15.0349Z" fill="white"/>
</g>
<defs>
<clipPath id="clip0_4_2928">
<rect width="160" height="32" fill="white"/>
</clipPath>
</defs>
</svg>
