<svg width="100" height="100" viewBox="0 0 100 100" fill="none" xmlns="http://www.w3.org/2000/svg">
<g id="Group 20715">
<g id="Ellipse 23" filter="url(#filter0_d_4_4768)">
<circle cx="50" cy="46" r="38" fill="#00CDC0"/>
</g>
<path id="Vector 19" d="M38.6001 45.25C38.1859 45.25 37.8501 45.5858 37.8501 46C37.8501 46.4142 38.1859 46.75 38.6001 46.75L38.6001 45.25ZM61.9304 46.5303C62.2233 46.2374 62.2233 45.7626 61.9304 45.4697L57.1575 40.6967C56.8646 40.4038 56.3897 40.4038 56.0968 40.6967C55.8039 40.9896 55.8039 41.4645 56.0968 41.7574L60.3394 46L56.0968 50.2426C55.8039 50.5355 55.8039 51.0104 56.0968 51.3033C56.3897 51.5962 56.8646 51.5962 57.1575 51.3033L61.9304 46.5303ZM38.6001 46.75L61.4001 46.75L61.4001 45.25L38.6001 45.25L38.6001 46.75Z" fill="white"/>
</g>
<defs>
<filter id="filter0_d_4_4768" x="0" y="0" width="100" height="100" filterUnits="userSpaceOnUse" color-interpolation-filters="sRGB">
<feFlood flood-opacity="0" result="BackgroundImageFix"/>
<feColorMatrix in="SourceAlpha" type="matrix" values="0 0 0 0 0 0 0 0 0 0 0 0 0 0 0 0 0 0 127 0" result="hardAlpha"/>
<feOffset dy="4"/>
<feGaussianBlur stdDeviation="6"/>
<feComposite in2="hardAlpha" operator="out"/>
<feColorMatrix type="matrix" values="0 0 0 0 0.105882 0 0 0 0 0.756863 0 0 0 0 0.34902 0 0 0 0.15 0"/>
<feBlend mode="normal" in2="BackgroundImageFix" result="effect1_dropShadow_4_4768"/>
<feBlend mode="normal" in="SourceGraphic" in2="effect1_dropShadow_4_4768" result="shape"/>
</filter>
</defs>
</svg>
