<svg width="178" height="190" viewBox="0 0 178 190" fill="none" xmlns="http://www.w3.org/2000/svg">
<g id="Frame" clip-path="url(#clip0_541_8494)">
<g id="Group">
<g id="Layer_1">
<path id="Vector" d="M177.185 122.901C177.185 120.723 175.53 118.545 172.221 116.883L100.598 80.9265C93.9782 77.6038 83.245 77.6038 76.6253 80.9265L5.00265 116.883C1.69278 118.545 0.0378418 120.723 0.0378418 122.901V129.287C0.0378418 131.465 1.69278 133.643 5.00265 135.305L76.6253 171.261C83.245 174.584 93.9782 174.584 100.598 171.261L172.221 135.305C175.53 133.643 177.185 131.465 177.185 129.285V122.899V122.901Z" fill="url(#paint0_linear_541_8494)"/>
<path id="Vector_2" d="M172.221 128.919L100.598 164.875C93.9782 168.198 83.245 168.198 76.6253 164.875L5.00265 128.919C-1.61709 125.596 -1.61709 120.206 5.00265 116.883L76.6253 80.9265C83.245 77.6038 93.9782 77.6038 100.598 80.9265L172.221 116.883C178.84 120.206 178.84 125.596 172.221 128.919Z" fill="url(#paint1_linear_541_8494)"/>
<path id="Vector_3" d="M172.221 116.147L100.598 152.103C93.9782 155.426 83.245 155.426 76.6253 152.103L5.00265 116.147C1.69278 114.485 0.0378418 112.307 0.0378418 110.129V116.515C0.0378418 118.693 1.69278 120.871 5.00265 122.533L76.6253 158.489C83.245 161.812 93.9782 161.812 100.598 158.489L172.221 122.533C175.53 120.871 177.185 118.693 177.185 116.513V110.129C177.185 112.307 175.53 114.485 172.221 116.147Z" fill="url(#paint2_linear_541_8494)"/>
<path id="Vector_4" opacity="0.5" d="M172.221 116.146L100.598 152.103C93.9782 155.426 83.245 155.426 76.6253 152.103L5.00265 116.146C-1.61709 112.824 -1.61709 107.434 5.00265 104.111L76.6253 68.1545C83.245 64.8317 93.9782 64.8317 100.598 68.1545L172.221 104.111C178.84 107.434 178.84 112.824 172.221 116.146Z" fill="url(#paint3_linear_541_8494)"/>
<path id="Vector_5" d="M94.4734 13.7198L56.4164 0.101807L53.1891 1.72175L108.521 114.64L111.748 113.02C124.736 106.492 132.533 93.7268 132.533 75.5478V38.3153L94.4734 13.7176V13.7198Z" fill="url(#paint4_linear_541_8494)"/>
<path id="Vector_6" d="M53.1891 1.72174V38.9542C53.1891 64.1711 68.1877 94.0342 91.2482 119.371C114.309 117.186 129.307 102.385 129.307 77.1677V39.9353L91.2482 15.3375L53.1891 1.72174Z" fill="url(#paint5_linear_541_8494)"/>
<path id="Vector_7" d="M94.4734 13.7176L56.4164 0.101807L53.1891 1.72174L91.246 15.3397L129.305 39.9375L132.533 38.3153L94.4734 13.7176Z" fill="url(#paint6_linear_541_8494)"/>
<path id="Vector_8" d="M88.8918 16.5214L50.8326 2.90344L47.6053 4.52338L102.937 117.442L106.164 115.822C119.152 109.294 126.949 96.5285 126.949 78.3494V41.117L88.8896 16.5192L88.8918 16.5214Z" fill="url(#paint7_linear_541_8494)"/>
<path id="Vector_9" d="M47.6053 4.52557V41.758C47.6053 66.975 62.604 96.8381 85.6645 122.175C108.725 119.99 123.724 105.188 123.724 79.9715V42.7391L85.6645 18.1413L47.6053 4.52557Z" fill="url(#paint8_linear_541_8494)"/>
<path id="Vector_10" d="M88.8918 16.5214L50.8326 2.90344L47.6053 4.52556L85.6644 18.1413L123.724 42.7391L126.951 41.1192L88.8918 16.5214Z" fill="url(#paint9_linear_541_8494)"/>
<path id="Vector_11" opacity="0.5" d="M41.5871 7.54523V44.7776C41.5871 69.9946 56.5858 99.8577 79.6463 125.195C102.707 123.01 117.705 108.208 117.705 82.9912V45.7588L79.6463 21.161L41.5871 7.54523Z" fill="url(#paint10_linear_541_8494)"/>
<path id="Vector_12" d="M117.703 45.761V82.9934C117.703 101.17 109.909 113.936 96.9189 120.466L100.146 118.846C113.134 112.318 120.931 99.5525 120.931 81.3735V44.1411L117.703 45.761Z" fill="url(#paint11_linear_541_8494)"/>
<path id="Vector_13" d="M120.931 44.141L82.8736 19.5432L44.8145 5.92529L41.5871 7.54523L79.6463 21.1632L110.851 41.3307L117.703 45.7609L120.931 44.141Z" fill="url(#paint12_linear_541_8494)"/>
<g id="Group_2" style="mix-blend-mode:multiply">
<path id="Vector_14" opacity="0.02" d="M71.8169 97.6426C70.7874 97.1258 69.7558 96.2145 68.9718 95.0306L56.3708 76.0535C54.7984 73.6858 54.7984 71.1283 56.3708 70.3391C57.9432 69.5498 60.4908 70.8296 62.0632 73.1974L71.819 87.888L92.3863 77.5667C93.9587 76.7774 96.5062 78.0572 98.0786 80.425C99.651 82.7928 99.651 85.3502 98.0786 86.1395L74.6663 97.8889C73.8801 98.2836 72.8507 98.1615 71.819 97.6426H71.8169Z" fill="#A7E0F2"/>
<path id="Vector_15" opacity="0.03" d="M72.0861 97.0081C71.0567 96.4914 70.0251 95.58 69.2411 94.3961L56.6401 75.4191C55.0677 73.0513 55.0677 70.4939 56.6401 69.7046C58.2125 68.9154 60.7601 70.1952 62.3325 72.5629L72.0883 87.2536L92.6556 76.9322C94.228 76.1429 96.7755 77.4228 98.3479 79.7905C99.9203 82.1583 99.9203 84.7157 98.3479 85.505L74.9356 97.2545C74.1494 97.6491 73.1199 97.527 72.0883 97.0081H72.0861Z" fill="#A7E0F2"/>
<path id="Vector_16" opacity="0.05" d="M72.3576 96.3758C71.3282 95.8591 70.2966 94.9478 69.5125 93.7639L56.9116 74.7868C55.3392 72.4191 55.3392 69.8616 56.9116 69.0723C58.484 68.2831 61.0315 69.5629 62.6039 71.9307L72.3598 86.6213L92.927 76.2999C94.4995 75.5107 97.047 76.7905 98.6194 79.1583C100.192 81.526 100.192 84.0835 98.6194 84.8727L75.2071 96.6222C74.4209 97.0168 73.3914 96.8947 72.3598 96.3758H72.3576Z" fill="#A7E0F2"/>
<path id="Vector_17" opacity="0.06" d="M72.627 95.7436C71.5975 95.2268 70.5659 94.3155 69.7819 93.1316L57.1809 74.1546C55.6085 71.7868 55.6085 69.2293 57.1809 68.4401C58.7533 67.6508 61.3009 68.9306 62.8733 71.2984L72.6291 85.989L93.1964 75.6677C94.7688 74.8784 97.3163 76.1582 98.8887 78.526C100.461 80.8938 100.461 83.4512 98.8887 84.2405L75.4764 95.9899C74.6902 96.3846 73.6607 96.2625 72.6291 95.7436H72.627Z" fill="#A6E4F2"/>
<path id="Vector_18" opacity="0.08" d="M72.8962 95.1113C71.8668 94.5946 70.8352 93.6832 70.0511 92.4993L57.4502 73.5223C55.8778 71.1545 55.8778 68.5971 57.4502 67.8078C59.0226 67.0186 61.5701 68.2984 63.1425 70.6661L72.8984 85.3568L93.4656 75.0354C95.0381 74.2461 97.5856 75.526 99.158 77.8937C100.73 80.2615 100.73 82.819 99.158 83.6082L75.7457 95.3577C74.9595 95.7523 73.93 95.6302 72.8984 95.1113H72.8962Z" fill="#A6E4F2"/>
<path id="Vector_19" opacity="0.1" d="M73.1677 94.479C72.1383 93.9622 71.1067 93.0509 70.3226 91.867L57.7217 72.89C56.1493 70.5222 56.1493 67.9648 57.7217 67.1755C59.2941 66.3862 61.8416 67.6661 63.414 70.0338L73.1699 84.7245L93.7371 74.4031C95.3095 73.6138 97.8571 74.8936 99.4295 77.2614C101.002 79.6292 101.002 82.1866 99.4295 82.9759L76.0172 94.7253C75.231 95.12 74.2015 94.9979 73.1699 94.479H73.1677Z" fill="#A6E4F2"/>
<path id="Vector_20" opacity="0.11" d="M73.437 93.8467C72.4076 93.33 71.376 92.4186 70.5919 91.2348L57.991 72.2577C56.4186 69.8899 56.4186 67.3325 57.991 66.5432C59.5634 65.754 62.1109 67.0338 63.6833 69.4016L73.4392 84.0922L94.0065 73.7708C95.5789 72.9816 98.1264 74.2614 99.6988 76.6292C101.271 78.9969 101.271 81.5544 99.6988 82.3436L76.2865 94.0931C75.5003 94.4877 74.4708 94.3656 73.4392 93.8467H73.437Z" fill="#A6E4F2"/>
<path id="Vector_21" opacity="0.13" d="M73.7085 93.2123C72.6791 92.6955 71.6475 91.7842 70.8634 90.6003L58.2625 71.6233C56.6901 69.2555 56.6901 66.698 58.2625 65.9088C59.8349 65.1195 62.3824 66.3993 63.9548 68.7671L73.7107 83.4577L94.2779 73.1364C95.8503 72.3471 98.3979 73.6269 99.9703 75.9947C101.543 78.3625 101.543 80.9199 99.9703 81.7092L76.558 93.4586C75.7718 93.8533 74.7423 93.7312 73.7107 93.2123H73.7085Z" fill="#A6E9F2"/>
<path id="Vector_22" opacity="0.15" d="M73.9778 92.58C72.9484 92.0633 71.9167 91.1519 71.1327 89.968L58.5318 70.991C56.9593 68.6232 56.9593 66.0658 58.5318 65.2765C60.1042 64.4873 62.6517 65.7671 64.2241 68.1348L73.98 82.8255L94.5472 72.5041C96.1196 71.7148 98.6672 72.9947 100.24 75.3624C101.812 77.7302 101.812 80.2876 100.24 81.0769L76.8273 92.8264C76.0411 93.221 75.0116 93.0989 73.98 92.58H73.9778Z" fill="#A6E9F2"/>
<path id="Vector_23" opacity="0.16" d="M74.2471 91.9477C73.2177 91.431 72.1861 90.5197 71.402 89.3358L58.8011 70.3587C57.2287 67.991 57.2287 65.4335 58.8011 64.6442C60.3735 63.855 62.921 65.1348 64.4934 67.5026L74.2493 82.1932L94.8165 71.8718C96.3889 71.0826 98.9365 72.3624 100.509 74.7302C102.081 77.0979 102.081 79.6554 100.509 80.4446L77.0966 92.1941C76.3104 92.5887 75.2809 92.4666 74.2493 91.9477H74.2471Z" fill="#A6E9F2"/>
<path id="Vector_24" opacity="0.18" d="M74.5186 91.3154C73.4892 90.7987 72.4575 89.8873 71.6735 88.7034L59.0726 69.7264C57.5001 67.3586 57.5001 64.8012 59.0726 64.0119C60.645 63.2227 63.1925 64.5025 64.7649 66.8702L74.5208 81.5609L95.088 71.2395C96.6604 70.4502 99.208 71.7301 100.78 74.0978C102.353 76.4656 102.353 79.0231 100.78 79.8123L77.3681 91.5618C76.5819 91.9564 75.5524 91.8343 74.5208 91.3154H74.5186Z" fill="#A6E9F2"/>
<path id="Vector_25" opacity="0.19" d="M74.7879 90.6831C73.7585 90.1664 72.7268 89.2551 71.9428 88.0712L59.3418 69.0941C57.7694 66.7264 57.7694 64.1689 59.3418 63.3797C60.9142 62.5904 63.4618 63.8702 65.0342 66.238L74.7901 80.9286L95.3573 70.6072C96.9297 69.818 99.4773 71.0978 101.05 73.4656C102.622 75.8333 102.622 78.3908 101.05 79.1801L77.6373 90.9295C76.8511 91.3241 75.8217 91.202 74.7901 90.6831H74.7879Z" fill="#A5E4F2"/>
<path id="Vector_26" opacity="0.21" d="M75.0572 90.0487C74.0278 89.532 72.9962 88.6206 72.2121 87.4367L59.6112 68.4597C58.0388 66.0919 58.0388 63.5345 59.6112 62.7452C61.1836 61.9559 63.7311 63.2358 65.3035 65.6035L75.0594 80.2942L95.6266 69.9728C97.199 69.1835 99.7466 70.4633 101.319 72.8311C102.891 75.1989 102.891 77.7563 101.319 78.5456L77.9067 90.295C77.1205 90.6897 76.091 90.5676 75.0594 90.0487H75.0572Z" fill="#A5E4F2"/>
<path id="Vector_27" opacity="0.23" d="M75.3287 89.4164C74.2993 88.8997 73.2676 87.9883 72.4836 86.8045L59.8826 67.8274C58.3102 65.4596 58.3102 62.9022 59.8826 62.1129C61.455 61.3237 64.0026 62.6035 65.575 64.9713L75.3309 79.6619L95.8981 69.3405C97.4705 68.5513 100.018 69.8311 101.59 72.1988C103.163 74.5666 103.163 77.1241 101.59 77.9133L78.1782 89.6628C77.3919 90.0574 76.3625 89.9353 75.3309 89.4164H75.3287Z" fill="#A5E4F2"/>
<path id="Vector_28" opacity="0.24" d="M75.598 88.7842C74.5686 88.2674 73.537 87.3561 72.7529 86.1722L60.152 67.1952C58.5796 64.8274 58.5796 62.2699 60.152 61.4807C61.7244 60.6914 64.2719 61.9712 65.8443 64.339L75.6002 79.0296L96.1674 68.7083C97.7398 67.919 100.287 69.1988 101.86 71.5666C103.432 73.9344 103.432 76.4918 101.86 77.2811L78.4475 89.0305C77.6613 89.4252 76.6318 89.3031 75.6002 88.7842H75.598Z" fill="#A5E4F2"/>
<path id="Vector_29" opacity="0.26" d="M75.8673 88.1519C74.8379 87.6352 73.8062 86.7238 73.0222 85.5399L60.4212 66.5629C58.8488 64.1951 58.8488 61.6377 60.4212 60.8484C61.9937 60.0592 64.5412 61.339 66.1136 63.7067L75.8695 78.3974L96.4367 68.076C98.0091 67.2867 100.557 68.5666 102.129 70.9343C103.701 73.3021 103.701 75.8595 102.129 76.6488L78.7167 88.3983C77.9305 88.7929 76.9011 88.6708 75.8695 88.1519H75.8673Z" fill="#A5E5F3"/>
<path id="Vector_30" opacity="0.27" d="M76.1388 87.5196C75.1093 87.0028 74.0777 86.0915 73.2937 84.9076L60.6927 65.9306C59.1203 63.5628 59.1203 61.0053 60.6927 60.2161C62.2651 59.4268 64.8127 60.7066 66.3851 63.0744L76.141 77.7651L96.7082 67.4437C98.2806 66.6544 100.828 67.9342 102.401 70.302C103.973 72.6698 103.973 75.2272 102.401 76.0165L78.9882 87.7659C78.202 88.1606 77.1726 88.0385 76.141 87.5196H76.1388Z" fill="#A5E5F3"/>
<path id="Vector_31" opacity="0.29" d="M76.4081 86.8873C75.3787 86.3706 74.347 85.4592 73.563 84.2753L60.962 65.2983C59.3896 62.9305 59.3896 60.3731 60.962 59.5838C62.5345 58.7946 65.082 60.0744 66.6544 62.4421L76.4103 77.1328L96.9775 66.8114C98.5499 66.0221 101.097 67.302 102.67 69.6697C104.242 72.0375 104.242 74.595 102.67 75.3842L79.2576 87.1337C78.4714 87.5283 77.4419 87.4062 76.4103 86.8873H76.4081Z" fill="#A5E5F3"/>
<path id="Vector_32" opacity="0.31" d="M76.6796 86.2528C75.6501 85.7361 74.6185 84.8248 73.8345 83.6409L61.2335 64.6638C59.6611 62.2961 59.6611 59.7386 61.2335 58.9494C62.8059 58.1601 65.3535 59.4399 66.9259 61.8077L76.6817 76.4983L97.249 66.1769C98.8214 65.3877 101.369 66.6675 102.941 69.0353C104.514 71.403 104.514 73.9605 102.941 74.7498L79.529 86.4992C78.7428 86.8938 77.7134 86.7717 76.6817 86.2528H76.6796Z" fill="#A5E5F3"/>
<path id="Vector_33" opacity="0.32" d="M76.9489 85.6206C75.9194 85.1039 74.8878 84.1925 74.1038 83.0086L61.5028 64.0316C59.9304 61.6638 59.9304 59.1064 61.5028 58.3171C63.0752 57.5278 65.6228 58.8077 67.1952 61.1754L76.9511 75.8661L97.5183 65.5447C99.0907 64.7554 101.638 66.0352 103.211 68.403C104.783 70.7708 104.783 73.3282 103.211 74.1175L79.7983 85.8669C79.0121 86.2616 77.9827 86.1395 76.9511 85.6206H76.9489Z" fill="#A4EEF3"/>
<path id="Vector_34" opacity="0.34" d="M77.2182 84.9883C76.1888 84.4716 75.1571 83.5602 74.3731 82.3764L61.7721 63.3993C60.1997 61.0316 60.1997 58.4741 61.7721 57.6848C63.3445 56.8956 65.8921 58.1754 67.4645 60.5432L77.2204 75.2338L97.7876 64.9124C99.36 64.1232 101.908 65.403 103.48 67.7708C105.052 70.1385 105.052 72.696 103.48 73.4852L80.0676 85.2347C79.2814 85.6293 78.252 85.5072 77.2204 84.9883H77.2182Z" fill="#A4EEF3"/>
<path id="Vector_35" opacity="0.35" d="M77.4897 84.356C76.4602 83.8393 75.4286 82.9279 74.6446 81.744L62.0436 62.767C60.4712 60.3992 60.4712 57.8418 62.0436 57.0525C63.616 56.2633 66.1636 57.5431 67.736 59.9108L77.4919 74.6015L98.0591 64.2801C99.6315 63.4908 102.179 64.7707 103.751 67.1384C105.324 69.5062 105.324 72.0636 103.751 72.8529L80.3391 84.6024C79.5529 84.997 78.5235 84.8749 77.4919 84.356H77.4897Z" fill="#A4EEF3"/>
<path id="Vector_36" opacity="0.37" d="M77.759 83.7237C76.7295 83.207 75.6979 82.2957 74.9139 81.1118L62.3129 62.1347C60.7405 59.767 60.7405 57.2095 62.3129 56.4202C63.8853 55.631 66.4329 56.9108 68.0053 59.2786L77.7611 73.9692L98.3284 63.6478C99.9008 62.8586 102.448 64.1384 104.021 66.5062C105.593 68.8739 105.593 71.4314 104.021 72.2206L80.6084 83.9701C79.8222 84.3647 78.7928 84.2426 77.7611 83.7237H77.759Z" fill="#A4EEF3"/>
<path id="Vector_37" opacity="0.39" d="M78.0283 83.0893C76.9988 82.5725 75.9672 81.6612 75.1832 80.4773L62.5822 61.5003C61.0098 59.1325 61.0098 56.575 62.5822 55.7858C64.1546 54.9965 66.7022 56.2764 68.2746 58.6441L78.0305 73.3348L98.5977 63.0134C100.17 62.2241 102.718 63.5039 104.29 65.8717C105.862 68.2395 105.862 70.7969 104.29 71.5862L80.8777 83.3356C80.0915 83.7303 79.0621 83.6082 78.0305 83.0893H78.0283Z" fill="#A4EEF3"/>
<path id="Vector_38" opacity="0.4" d="M78.2998 82.457C77.2703 81.9403 76.2387 81.0289 75.4547 79.845L62.8537 60.868C61.2813 58.5002 61.2813 55.9428 62.8537 55.1535C64.4261 54.3643 66.9737 55.6441 68.5461 58.0119L78.3019 72.7025L98.8692 62.3811C100.442 61.5919 102.989 62.8717 104.562 65.2394C106.134 67.6072 106.134 70.1647 104.562 70.9539L81.1492 82.7034C80.363 83.098 79.3336 82.9759 78.3019 82.457H78.2998Z" fill="#A4EEF3"/>
<path id="Vector_39" opacity="0.42" d="M78.5691 81.8247C77.5396 81.308 76.508 80.3967 75.724 79.2128L63.123 60.2357C61.5506 57.868 61.5506 55.3105 63.123 54.5213C64.6954 53.732 67.243 55.0118 68.8154 57.3796L78.5713 72.0702L99.1385 61.7488C100.711 60.9596 103.258 62.2394 104.831 64.6072C106.403 66.9749 106.403 69.5324 104.831 70.3217L81.4185 82.0711C80.6323 82.4657 79.6029 82.3436 78.5713 81.8247H78.5691Z" fill="#A4EEF3"/>
<path id="Vector_40" opacity="0.44" d="M78.8384 81.1925C77.8089 80.6758 76.7773 79.7644 75.9933 78.5805L63.3923 59.6035C61.8199 57.2357 61.8199 54.6783 63.3923 53.889C64.9647 53.0997 67.5123 54.3796 69.0847 56.7473L78.8406 71.438L99.4078 61.1166C100.98 60.3273 103.528 61.6071 105.1 63.9749C106.673 66.3427 106.673 68.9001 105.1 69.6894L81.6878 81.4388C80.9016 81.8335 79.8722 81.7114 78.8406 81.1925H78.8384Z" fill="#A4EEF3"/>
<path id="Vector_41" opacity="0.45" d="M79.1099 80.5602C78.0804 80.0434 77.0488 79.1321 76.2648 77.9482L63.6638 58.9712C62.0914 56.6034 62.0914 54.0459 63.6638 53.2567C65.2362 52.4674 67.7838 53.7472 69.3562 56.115L79.112 70.8056L99.6793 60.4843C101.252 59.695 103.799 60.9748 105.372 63.3426C106.944 65.7104 106.944 68.2678 105.372 69.0571L81.9593 80.8065C81.1731 81.2012 80.1437 81.0791 79.112 80.5602H79.1099Z" fill="#A3EEF3"/>
<path id="Vector_42" opacity="0.47" d="M79.3792 79.9257C78.3497 79.409 77.3181 78.4976 76.5341 77.3137L63.9331 58.3367C62.3607 55.9689 62.3607 53.4115 63.9331 52.6222C65.5055 51.833 68.0531 53.1128 69.6255 55.4805L79.3813 70.1712L99.9486 59.8498C101.521 59.0605 104.069 60.3404 105.641 62.7081C107.213 65.0759 107.213 67.6333 105.641 68.4226L82.2286 80.1721C81.4424 80.5667 80.413 80.4446 79.3813 79.9257H79.3792Z" fill="#A3EEF3"/>
<path id="Vector_43" opacity="0.48" d="M79.6506 79.2934C78.6212 78.7767 77.5896 77.8654 76.8055 76.6815L64.2046 57.7044C62.6322 55.3367 62.6322 52.7792 64.2046 51.99C65.777 51.2007 68.3245 52.4805 69.8969 54.8483L79.6528 69.5389L100.22 59.2175C101.792 58.4283 104.34 59.7081 105.912 62.0759C107.485 64.4436 107.485 67.0011 105.912 67.7903L82.5001 79.5398C81.7139 79.9344 80.6844 79.8123 79.6528 79.2934H79.6506Z" fill="#A3EEF3"/>
<path id="Vector_44" opacity="0.5" d="M79.92 78.6612C78.8905 78.1444 77.8589 77.2331 77.0749 76.0492L64.4739 57.0722C62.9015 54.7044 62.9015 52.1469 64.4739 51.3577C66.0463 50.5684 68.5939 51.8482 70.1663 54.216L79.9221 68.9067L100.489 58.5853C102.062 57.796 104.609 59.0758 106.182 61.4436C107.754 63.8114 107.754 66.3688 106.182 67.1581L82.7694 78.9075C81.9832 79.3022 80.9537 79.1801 79.9221 78.6612H79.92Z" fill="#A3EEF3"/>
</g>
<path id="Vector_45" d="M106.062 61.4349C104.49 59.0693 101.942 57.7873 100.37 58.5765L79.8027 68.8979L70.0468 54.2073C68.4766 51.8417 65.9269 50.5619 64.3544 51.349C64.3175 51.3686 64.2849 51.3926 64.248 51.4144C64.2459 51.41 58.7728 54.1528 58.7728 54.1528C57.2004 54.942 57.2004 57.4995 58.7728 59.8673L71.3738 78.8443C72.16 80.0282 73.1895 80.9395 74.2189 81.4563C75.2483 81.973 76.28 82.0951 77.0662 81.7026L100.479 69.9532C100.489 69.9466 106.06 67.1515 106.06 67.1515C107.633 66.3623 107.633 63.8048 106.06 61.437L106.062 61.4349Z" fill="#86E1E7"/>
<path id="Vector_46" d="M74.2211 81.4563C73.1916 80.9396 72.16 80.0282 71.376 78.8443L58.775 59.8673C57.2026 57.4995 57.2026 54.942 58.775 54.1528C60.3474 53.3635 62.895 54.6433 64.4674 57.0111L74.2232 71.7018L94.7905 61.3804C96.3629 60.5911 98.9104 61.8709 100.483 64.2387C102.055 66.6065 102.055 69.1639 100.483 69.9532L77.0705 81.7026C76.2843 82.0973 75.2549 81.9752 74.2232 81.4563H74.2211Z" fill="url(#paint13_linear_541_8494)"/>
</g>
</g>
</g>
<defs>
<linearGradient id="paint0_linear_541_8494" x1="0.947839" y1="126.093" x2="176.28" y2="126.093" gradientUnits="userSpaceOnUse">
<stop stop-color="#D3F2F2"/>
<stop offset="0.45" stop-color="#BBF8F8"/>
<stop offset="0.55" stop-color="#D3F2F2"/>
<stop offset="1" stop-color="#F2FEFF"/>
</linearGradient>
<linearGradient id="paint1_linear_541_8494" x1="0.0378418" y1="122.901" x2="177.185" y2="122.901" gradientUnits="userSpaceOnUse">
<stop stop-color="#E8FAFB"/>
<stop offset="1" stop-color="white"/>
</linearGradient>
<linearGradient id="paint2_linear_541_8494" x1="106.464" y1="148.212" x2="82.5897" y2="102.644" gradientUnits="userSpaceOnUse">
<stop stop-color="#04A396"/>
<stop offset="0.57" stop-color="#08BFB4"/>
<stop offset="0.6" stop-color="#00CDC0"/>
<stop offset="0.9" stop-color="#01AEA3"/>
<stop offset="1" stop-color="#00CDC0"/>
</linearGradient>
<linearGradient id="paint3_linear_541_8494" x1="0.037842" y1="76.7791" x2="182.919" y2="107.562" gradientUnits="userSpaceOnUse">
<stop stop-color="#00CDC0"/>
<stop offset="1" stop-color="#02A69B"/>
</linearGradient>
<linearGradient id="paint4_linear_541_8494" x1="125.133" y1="82.9825" x2="65.2155" y2="-0.965139" gradientUnits="userSpaceOnUse">
<stop stop-color="#D3ECF2"/>
<stop offset="0.3" stop-color="#BBF1F8"/>
<stop offset="0.33" stop-color="#D3EEF2"/>
<stop offset="0.92" stop-color="#F1FEFF"/>
<stop offset="1" stop-color="#DCFAF8"/>
</linearGradient>
<linearGradient id="paint5_linear_541_8494" x1="67.0236" y1="69.9575" x2="123.047" y2="24.914" gradientUnits="userSpaceOnUse">
<stop stop-color="#AAEFF3"/>
<stop offset="1" stop-color="#CCFCFF"/>
</linearGradient>
<linearGradient id="paint6_linear_541_8494" x1="108.781" y1="42.4971" x2="72.4296" y2="-8.43383" gradientUnits="userSpaceOnUse">
<stop stop-color="#D3EEF2"/>
<stop offset="0.3" stop-color="#BBF1F8"/>
<stop offset="0.33" stop-color="#D3EEF2"/>
<stop offset="0.92" stop-color="#F1FDFF"/>
<stop offset="1" stop-color="#DCF8FA"/>
</linearGradient>
<linearGradient id="paint7_linear_541_8494" x1="119.549" y1="85.7841" x2="59.6339" y2="1.83649" gradientUnits="userSpaceOnUse">
<stop stop-color="#D3F2F0"/>
<stop offset="0.3" stop-color="#BBF8F4"/>
<stop offset="0.33" stop-color="#D3F2F2"/>
<stop offset="0.92" stop-color="#F1FEFF"/>
<stop offset="1" stop-color="#DCFAFA"/>
</linearGradient>
<linearGradient id="paint8_linear_541_8494" x1="61.442" y1="72.7592" x2="117.466" y2="27.7157" gradientUnits="userSpaceOnUse">
<stop stop-color="#AAEAF3"/>
<stop offset="1" stop-color="#CCF3FF"/>
</linearGradient>
<linearGradient id="paint9_linear_541_8494" x1="103.198" y1="45.3009" x2="66.8458" y2="-5.63" gradientUnits="userSpaceOnUse">
<stop stop-color="#D3F2F0"/>
<stop offset="0.3" stop-color="#BBF4F8"/>
<stop offset="0.33" stop-color="#D3F0F2"/>
<stop offset="0.92" stop-color="#F1FCFF"/>
<stop offset="1" stop-color="#DCF5FA"/>
</linearGradient>
<linearGradient id="paint10_linear_541_8494" x1="41.5871" y1="22.2514" x2="122.155" y2="26.6563" gradientUnits="userSpaceOnUse">
<stop stop-color="#00CDC0"/>
<stop offset="1" stop-color="#02A69B"/>
</linearGradient>
<linearGradient id="paint11_linear_541_8494" x1="119.747" y1="103.117" x2="104.882" y2="74.7469" gradientUnits="userSpaceOnUse">
<stop stop-color="#02998D"/>
<stop offset="0.57" stop-color="#0AD6C9"/>
<stop offset="0.6" stop-color="#1BF2E5"/>
<stop offset="0.9" stop-color="#01BFB3"/>
<stop offset="1" stop-color="#00CDC0"/>
</linearGradient>
<linearGradient id="paint12_linear_541_8494" x1="94.4973" y1="51.3054" x2="76.3107" y2="16.5945" gradientUnits="userSpaceOnUse">
<stop stop-color="#02B3A4"/>
<stop offset="0.5" stop-color="#0BC9B9"/>
<stop offset="0.9" stop-color="#20D9CD"/>
<stop offset="1" stop-color="#0EE1D4"/>
</linearGradient>
<linearGradient id="paint13_linear_541_8494" x1="79.6268" y1="81.0878" x2="79.6268" y2="54.4449" gradientUnits="userSpaceOnUse">
<stop stop-color="#C3F7F7"/>
<stop offset="1" stop-color="white"/>
</linearGradient>
<clipPath id="clip0_541_8494">
<rect width="177.148" height="189.801" fill="white" transform="translate(0.0378418 0.101807)"/>
</clipPath>
</defs>
</svg>
