<svg width="32" height="32" viewBox="0 0 32 32" fill="none" xmlns="http://www.w3.org/2000/svg">
<g id="Group 20715">
<ellipse id="Ellipse 23" cx="16" cy="16" rx="16" ry="16" fill="white"/>
<path id="Vector 19" d="M10 15.25C9.58579 15.25 9.25 15.5858 9.25 16C9.25 16.4142 9.58579 16.75 10 16.75L10 15.25ZM22.5303 16.5303C22.8232 16.2374 22.8232 15.7626 22.5303 15.4697L17.7574 10.6967C17.4645 10.4038 16.9896 10.4038 16.6967 10.6967C16.4038 10.9896 16.4038 11.4645 16.6967 11.7574L20.9393 16L16.6967 20.2426C16.4038 20.5355 16.4038 21.0104 16.6967 21.3033C16.9896 21.5962 17.4645 21.5962 17.7574 21.3033L22.5303 16.5303ZM10 16.75L22 16.75L22 15.25L10 15.25L10 16.75Z" fill="#02A69B"/>
</g>
</svg>
