<svg width="160" height="32" viewBox="0 0 160 32" fill="none" xmlns="http://www.w3.org/2000/svg">
<g id="logo" clip-path="url(#clip0_4_4576)">
<path id="Vector" d="M2.5957 0H8.08646V32H0V2.56794C0 1.14983 1.16225 0 2.5957 0Z" fill="#007C72"/>
<path id="Vector_2" d="M16.1729 24V29.4321C16.1729 30.8502 15.0106 32 13.5772 32H8.08643L16.1729 24Z" fill="#007C72"/>
<path id="Vector_3" d="M29.75 32H24.2593V0H32.3457V29.4321C32.3457 30.8502 31.1835 32 29.75 32Z" fill="#00CDC0"/>
<path id="Vector_4" d="M16.1729 8V2.56794C16.1729 1.14983 17.3351 0 18.7686 0H24.2593L16.1729 8Z" fill="#00CDC0"/>
<path id="Vector_5" d="M49.5404 16.9617V19.9233C49.5404 20.6969 48.9064 21.324 48.1245 21.324H45.1309L49.5404 16.9617Z" fill="#007C72"/>
<path id="Vector_6" d="M43.1304 10.6725H45.1309V19.6551V21.331H43.1304V10.676V10.6725Z" fill="#4B4B4B"/>
<path id="Vector_7" d="M51.3784 16C51.3784 12.8502 53.8403 10.5192 57.1791 10.5192C60.518 10.5192 62.9798 12.8328 62.9798 16C62.9798 19.1672 60.518 21.4808 57.1791 21.4808C53.8403 21.4808 51.3784 19.1533 51.3784 16ZM60.9652 16C60.9652 13.8223 59.3487 12.2544 57.1791 12.2544C55.0096 12.2544 53.393 13.8223 53.393 16C53.393 18.1777 55.0096 19.7456 57.1791 19.7456C59.3487 19.7456 60.9652 18.1777 60.9652 16Z" fill="#4B4B4B"/>
<path id="Vector_8" d="M72.7639 15.878H74.6552V20.1254C73.5317 21.0244 71.9609 21.4808 70.4394 21.4808C67.1005 21.4808 64.6387 19.1812 64.6387 16C64.6387 12.8188 67.1005 10.5192 70.4711 10.5192C72.2708 10.5192 73.7782 11.1115 74.7961 12.2544L73.5352 13.4739C72.6899 12.6376 71.7179 12.2544 70.5662 12.2544C68.2734 12.2544 66.6568 13.7909 66.6568 16C66.6568 18.2091 68.2734 19.7456 70.5486 19.7456C71.3163 19.7456 72.0736 19.5923 72.7639 19.1986V15.8815V15.878Z" fill="#4B4B4B"/>
<path id="Vector_9" d="M77.29 10.6725H79.2905V21.3275H77.29V10.6725Z" fill="#4B4B4B"/>
<path id="Vector_10" d="M81.4283 16C81.4283 12.8188 83.8902 10.5192 87.1973 10.5192C88.9513 10.5192 90.4587 11.1429 91.4589 12.2997L90.1664 13.5017C89.381 12.6655 88.4124 12.2544 87.2889 12.2544C85.0595 12.2544 83.4429 13.8084 83.4429 16C83.4429 18.1916 85.0595 19.7456 87.2889 19.7456C88.4124 19.7456 89.381 19.3345 90.1664 18.4808L91.4589 19.7003C90.4587 20.8571 88.9513 21.4808 87.1797 21.4808C83.8867 21.4808 81.4248 19.1812 81.4248 16H81.4283Z" fill="#4B4B4B"/>
<path id="Vector_11" d="M100.982 18.8606H95.597L94.5369 21.3275H92.4766L97.3228 10.6725H99.2916L104.155 21.3275H102.063L100.986 18.8606H100.982ZM100.32 17.3066L98.2878 12.6481L96.2733 17.3066H100.32Z" fill="#4B4B4B"/>
<path id="Vector_12" d="M105.832 10.6725H107.833V19.6551H113.464V21.331H105.832V10.676V10.6725Z" fill="#4B4B4B"/>
<path id="Vector_13" d="M121.547 10.6725H127.119V12.3484H123.547V21.331H121.547V10.676V10.6725Z" fill="#4B4B4B"/>
<path id="Vector_14" d="M137.012 19.669V21.3275H128.933V10.6725H136.797V12.331H130.933V15.1011H136.135V16.7282H130.933V19.6655H137.012V19.669Z" fill="#4B4B4B"/>
<path id="Vector_15" d="M138.474 16C138.474 12.8188 140.936 10.5192 144.243 10.5192C145.997 10.5192 147.504 11.1429 148.504 12.2997L147.212 13.5017C146.426 12.6655 145.458 12.2544 144.334 12.2544C142.105 12.2544 140.488 13.8084 140.488 16C140.488 18.1916 142.105 19.7456 144.334 19.7456C145.458 19.7456 146.426 19.3345 147.212 18.4808L148.504 19.7003C147.504 20.8571 145.997 21.4808 144.225 21.4808C140.932 21.4808 138.47 19.1812 138.47 16H138.474Z" fill="#4B4B4B"/>
<path id="Vector_16" d="M160 10.6725V21.3275H158V16.7596H152.428V21.3275H150.427V10.6725H152.428V15.0732H158V10.6725H160Z" fill="#4B4B4B"/>
<path id="Vector_17" d="M117.138 15.0349V12.0732C117.138 11.2997 117.772 10.6725 118.554 10.6725H121.547L117.138 15.0349Z" fill="#00CDC0"/>
</g>
<defs>
<clipPath id="clip0_4_4576">
<rect width="160" height="32" fill="white"/>
</clipPath>
</defs>
</svg>
