<svg width="160" height="32" viewBox="0 0 160 32" fill="none" xmlns="http://www.w3.org/2000/svg">
<g id="logo" clip-path="url(#clip0_1_336)">
<g id="Group 20784">
<path id="Vector" d="M2.5957 0H8.08646V32H0V2.56794C0 1.14983 1.16225 0 2.5957 0Z" fill="white"/>
<path id="Vector_2" d="M16.1729 24V29.4321C16.1729 30.8502 15.0106 32 13.5772 32H8.08643L16.1729 24Z" fill="white"/>
<path id="Vector_3" d="M29.75 32H24.2593V0H32.3457V29.4321C32.3457 30.8502 31.1835 32 29.75 32Z" fill="white"/>
<path id="Vector_4" d="M16.1729 8V2.56794C16.1729 1.14983 17.3351 0 18.7686 0H24.2593L16.1729 8Z" fill="white"/>
</g>
<path id="Vector_5" d="M49.5401 16.9617V19.9233C49.5401 20.6969 48.9062 21.324 48.1243 21.324H45.1306L49.5401 16.9617Z" fill="white"/>
<path id="Vector_6" d="M43.1301 10.6725H45.1306V19.6551V21.331H43.1301V10.676V10.6725Z" fill="white"/>
<path id="Vector_7" d="M51.3787 16C51.3787 12.8502 53.8405 10.5192 57.1794 10.5192C60.5182 10.5192 62.9801 12.8328 62.9801 16C62.9801 19.1672 60.5182 21.4808 57.1794 21.4808C53.8405 21.4808 51.3787 19.1533 51.3787 16ZM60.9655 16C60.9655 13.8223 59.3489 12.2544 57.1794 12.2544C55.0098 12.2544 53.3932 13.8223 53.3932 16C53.3932 18.1777 55.0098 19.7456 57.1794 19.7456C59.3489 19.7456 60.9655 18.1777 60.9655 16Z" fill="white"/>
<path id="Vector_8" d="M72.7641 15.8781H74.6554V20.1254C73.5319 21.0244 71.9611 21.4808 70.4396 21.4808C67.1008 21.4808 64.6389 19.1812 64.6389 16C64.6389 12.8188 67.1008 10.5192 70.4713 10.5192C72.271 10.5192 73.7785 11.1115 74.7963 12.2544L73.5354 13.4739C72.6902 12.6376 71.7181 12.2544 70.5664 12.2544C68.2736 12.2544 66.657 13.7909 66.657 16C66.657 18.2091 68.2736 19.7456 70.5488 19.7456C71.3166 19.7456 72.0738 19.5923 72.7641 19.1986V15.8815V15.8781Z" fill="white"/>
<path id="Vector_9" d="M77.2898 10.6725H79.2903V21.3275H77.2898V10.6725Z" fill="white"/>
<path id="Vector_10" d="M81.4281 16C81.4281 12.8188 83.8899 10.5192 87.1971 10.5192C88.951 10.5192 90.4584 11.1429 91.4587 12.2997L90.1661 13.5017C89.3807 12.6655 88.4122 12.2544 87.2887 12.2544C85.0592 12.2544 83.4427 13.8084 83.4427 16C83.4427 18.1916 85.0592 19.7456 87.2887 19.7456C88.4122 19.7456 89.3807 19.3345 90.1661 18.4808L91.4587 19.7004C90.4584 20.8571 88.951 21.4808 87.1795 21.4808C83.8864 21.4808 81.4246 19.1812 81.4246 16H81.4281Z" fill="white"/>
<path id="Vector_11" d="M100.982 18.8606H95.597L94.5369 21.3275H92.4766L97.3228 10.6725H99.2916L104.155 21.3275H102.063L100.986 18.8606H100.982ZM100.32 17.3066L98.2878 12.6481L96.2733 17.3066H100.32Z" fill="white"/>
<path id="Vector_12" d="M105.832 10.6725H107.833V19.6551H113.464V21.331H105.832V10.676V10.6725Z" fill="white"/>
<path id="Vector_13" d="M121.547 10.6725H127.119V12.3484H123.548V21.331H121.547V10.676V10.6725Z" fill="white"/>
<path id="Vector_14" d="M137.012 19.669V21.3275H128.933V10.6725H136.797V12.331H130.933V15.1011H136.135V16.7282H130.933V19.6655H137.012V19.669Z" fill="white"/>
<path id="Vector_15" d="M138.474 16C138.474 12.8188 140.936 10.5192 144.243 10.5192C145.997 10.5192 147.504 11.1429 148.504 12.2997L147.212 13.5017C146.426 12.6655 145.458 12.2544 144.334 12.2544C142.105 12.2544 140.488 13.8084 140.488 16C140.488 18.1916 142.105 19.7456 144.334 19.7456C145.458 19.7456 146.426 19.3345 147.212 18.4808L148.504 19.7004C147.504 20.8571 145.997 21.4808 144.225 21.4808C140.932 21.4808 138.47 19.1812 138.47 16H138.474Z" fill="white"/>
<path id="Vector_16" d="M160 10.6725V21.3275H158V16.7596H152.428V21.3275H150.427V10.6725H152.428V15.0732H158V10.6725H160Z" fill="white"/>
<path id="Vector_17" d="M117.137 15.0349V12.0732C117.137 11.2997 117.771 10.6725 118.553 10.6725H121.547L117.137 15.0349Z" fill="white"/>
</g>
<defs>
<clipPath id="clip0_1_336">
<rect width="160" height="32" fill="white"/>
</clipPath>
</defs>
</svg>
