<svg width="100" height="100" viewBox="0 0 100 100" fill="none" xmlns="http://www.w3.org/2000/svg">
<circle cx="50" cy="50" r="49.5" stroke="white"/>
<path d="M36.9198 45.604C36.2352 45.604 35.5722 45.5 34.9308 45.292C34.2982 45.0753 33.7998 44.798 33.4358 44.46L33.9168 43.446C34.2635 43.758 34.7055 44.0137 35.2428 44.213C35.7888 44.4037 36.3478 44.499 36.9198 44.499C37.6738 44.499 38.2372 44.3733 38.6098 44.122C38.9825 43.862 39.1688 43.5197 39.1688 43.095C39.1688 42.783 39.0648 42.5317 38.8568 42.341C38.6575 42.1417 38.4062 41.99 38.1028 41.886C37.8082 41.782 37.3878 41.665 36.8418 41.535C36.1572 41.3703 35.6025 41.2057 35.1778 41.041C34.7618 40.8763 34.4022 40.625 34.0988 40.287C33.8042 39.9403 33.6568 39.4767 33.6568 38.896C33.6568 38.4107 33.7825 37.973 34.0338 37.583C34.2938 37.193 34.6838 36.881 35.2038 36.647C35.7238 36.413 36.3695 36.296 37.1408 36.296C37.6782 36.296 38.2068 36.3653 38.7268 36.504C39.2468 36.6427 39.6932 36.842 40.0658 37.102L39.6368 38.142C39.2555 37.8993 38.8482 37.7173 38.4148 37.596C37.9815 37.466 37.5568 37.401 37.1408 37.401C36.4042 37.401 35.8495 37.5353 35.4768 37.804C35.1128 38.0727 34.9308 38.4193 34.9308 38.844C34.9308 39.156 35.0348 39.4117 35.2428 39.611C35.4508 39.8017 35.7065 39.9533 36.0098 40.066C36.3218 40.17 36.7422 40.2827 37.2708 40.404C37.9555 40.5687 38.5058 40.7333 38.9218 40.898C39.3378 41.0627 39.6932 41.314 39.9878 41.652C40.2912 41.99 40.4428 42.445 40.4428 43.017C40.4428 43.4937 40.3128 43.9313 40.0528 44.33C39.7928 44.72 39.3985 45.032 38.8698 45.266C38.3412 45.4913 37.6912 45.604 36.9198 45.604ZM45.1631 45.578C44.4611 45.578 43.8327 45.4263 43.2781 45.123C42.7321 44.8197 42.3031 44.4037 41.9911 43.875C41.6791 43.3377 41.5231 42.731 41.5231 42.055C41.5231 41.379 41.6791 40.7767 41.9911 40.248C42.3031 39.7107 42.7321 39.2947 43.2781 39C43.8327 38.6967 44.4611 38.545 45.1631 38.545C45.7871 38.545 46.3417 38.6707 46.8271 38.922C47.3211 39.1733 47.7024 39.5373 47.9711 40.014L47.0221 40.625C46.8054 40.2957 46.5367 40.0487 46.2161 39.884C45.8954 39.7193 45.5401 39.637 45.1501 39.637C44.6994 39.637 44.2921 39.7367 43.9281 39.936C43.5727 40.1353 43.2911 40.4213 43.0831 40.794C42.8837 41.158 42.7841 41.5783 42.7841 42.055C42.7841 42.5403 42.8837 42.9693 43.0831 43.342C43.2911 43.706 43.5727 43.9877 43.9281 44.187C44.2921 44.3863 44.6994 44.486 45.1501 44.486C45.5401 44.486 45.8954 44.4037 46.2161 44.239C46.5367 44.0743 46.8054 43.8273 47.0221 43.498L47.9711 44.096C47.7024 44.5727 47.3211 44.941 46.8271 45.201C46.3417 45.4523 45.7871 45.578 45.1631 45.578ZM50.7828 39.767C50.9995 39.3683 51.3201 39.065 51.7448 38.857C52.1695 38.649 52.6851 38.545 53.2918 38.545V39.754C53.2225 39.7453 53.1271 39.741 53.0058 39.741C52.3298 39.741 51.7968 39.9447 51.4068 40.352C51.0255 40.7507 50.8348 41.3227 50.8348 42.068V45.5H49.5868V38.61H50.7828V39.767ZM57.7175 45.578C57.0328 45.578 56.4175 45.4263 55.8715 45.123C55.3255 44.8197 54.8965 44.4037 54.5845 43.875C54.2812 43.3377 54.1295 42.731 54.1295 42.055C54.1295 41.379 54.2812 40.7767 54.5845 40.248C54.8965 39.7107 55.3255 39.2947 55.8715 39C56.4175 38.6967 57.0328 38.545 57.7175 38.545C58.4022 38.545 59.0132 38.6967 59.5505 39C60.0965 39.2947 60.5212 39.7107 60.8245 40.248C61.1365 40.7767 61.2925 41.379 61.2925 42.055C61.2925 42.731 61.1365 43.3377 60.8245 43.875C60.5212 44.4037 60.0965 44.8197 59.5505 45.123C59.0132 45.4263 58.4022 45.578 57.7175 45.578ZM57.7175 44.486C58.1595 44.486 58.5538 44.3863 58.9005 44.187C59.2558 43.979 59.5332 43.693 59.7325 43.329C59.9318 42.9563 60.0315 42.5317 60.0315 42.055C60.0315 41.5783 59.9318 41.158 59.7325 40.794C59.5332 40.4213 59.2558 40.1353 58.9005 39.936C58.5538 39.7367 58.1595 39.637 57.7175 39.637C57.2755 39.637 56.8768 39.7367 56.5215 39.936C56.1748 40.1353 55.8975 40.4213 55.6895 40.794C55.4902 41.158 55.3905 41.5783 55.3905 42.055C55.3905 42.5317 55.4902 42.9563 55.6895 43.329C55.8975 43.693 56.1748 43.979 56.5215 44.187C56.8768 44.3863 57.2755 44.486 57.7175 44.486ZM63.0184 35.854H64.2664V45.5H63.0184V35.854ZM66.6493 35.854H67.8973V45.5H66.6493V35.854Z" fill="white"/>
<path d="M42 57L51 66L60 57" stroke="white" stroke-linecap="round"/>
</svg>
